Genre:Biography | Drama | Thriller
Language:English  http://www.imdb.com/title/tt1244754/
Source:BluRay.x264-AVS720


Format : Matroska
File size : 1.95 GiB
Duration : 1h 47mn
Overall bit rate : 2 612 Kbps


Video
Format settings, CABAC : Yes
Format settings, ReFrames : 4 frames
Codec ID : V_MPEG4/ISO/AVC
Duration : 1h 47mn
Bit rate : 2 176 Kbps
Nominal bit rate : 2 300 Kbps
Width : 1 280 pixels
Height : 688 pixels
Display aspect ratio : 1.860
Frame rate mode : Variable
Frame rate : 23.976 fps
Color space : YUV
Chroma subsampling : 4:2:0
Bit depth : 8 bits
Scan type : Progressive
Bits/(Pixel*Frame) : 0.103
Stream size : 1.63 GiB (83%)
Writing library : x264

Audio
ID : 2
Format : AC-3
Format/Info : Audio Coding 3
Mode extension : CM (complete main)
Codec ID : A_AC3
Duration : 1h 47mn
Bit rate mode : Constant
Bit rate : 384 Kbps
Channel(s) : 6 channels
Channel positions : Front: L C R, Side: L R, LFE
Sampling rate : 48.0 KHz
Bit depth : 16 bits
Video delay : -1mn 5s
Stream size : 294 MiB (15%)
Language : English


Plot:
A working mother puts herself through law school in an effort to represent her brother, who has been wrongfully convicted of murder and has exhausted his chances to appeal his conviction through public defenders
 
http://shareimage.org/images/i41ek6wqcc8ih4yyfgcj.png 
http://shareimage.org/images/c9pkf9k12cbwmftw94.png 
http://shareimage.org/images/4dbacu96i09i9evkvfe.png 
http://shareimage.org/images/ls59bqxm00o1g011z38.png